<?xml version="1.0" encoding="iso-8859-1"?>
<!-- Generator: Adobe Illustrator 19.0.0, SVG Export Plug-In . SVG Version: 6.00 Build 0)  -->
<svg version="1.1" id="Layer_1" xmlns="http://www.w3.org/2000/svg" xmlns:xlink="http://www.w3.org/1999/xlink" x="0px" y="0px"
	 viewBox="0 0 512 512" style="enable-background:new 0 0 512 512;" xml:space="preserve">
<polygon style="fill:#FFCE54;" points="451,178.68 380,150.68 310,178.68 258,150.68 180,178.68 121,150.68 71,178.68 24,167.68 
	83,394.68 426,394.68 488,164.68 "/>
<g>
	<path style="fill:#F5F7FA;" d="M236.047,287.992c0,12.547-10.156,22.703-22.703,22.703c-12.531,0-22.688-10.156-22.688-22.703
		c0-12.531,10.156-22.688,22.688-22.688C225.891,265.305,236.047,275.461,236.047,287.992z"/>
	<path style="fill:#F5F7FA;" d="M318.719,287.992c0,12.547-10.156,22.703-22.703,22.703c-12.531,0-22.688-10.156-22.688-22.703
		c0-12.531,10.156-22.688,22.688-22.688C308.563,265.305,318.719,275.461,318.719,287.992z"/>
</g>
<path d="M512,117.336c0-5.891-4.766-10.672-10.656-10.672c-4.938,0-9.078,3.359-10.297,7.906v-0.016l-10.234,38.016l-14.969,9.984
	c-4.875,3.25-11.312,4.875-17.75,4.875s-12.875-1.625-17.75-4.875l-28.5-19c-4.891-3.266-11.312-4.891-17.75-4.891
	s-12.875,1.625-17.75,4.891l-28.5,19c-4.891,3.25-11.312,4.875-17.75,4.875s-12.875-1.625-17.75-4.875l-28.5-19
	c-4.891-3.266-11.312-4.891-17.75-4.891s-12.875,1.625-17.75,4.891l-28.5,19c-4.891,3.25-11.312,4.875-17.75,4.875
	s-12.875-1.625-17.75-4.875l-28.5-19c-4.891-3.266-11.312-4.891-17.75-4.891s-12.875,1.625-17.75,4.891l-28.5,19
	c-4.891,3.25-11.312,4.875-17.75,4.875s-12.875-1.625-17.75-4.875L31.172,152.43l-10.203-37.875v0.016
	c-1.219-4.547-5.359-7.906-10.297-7.906C4.781,106.664,0,111.445,0,117.336c0,0.953,0.156,1.891,0.375,2.766l0,0l76.797,285.234
	h357.672l76.797-285.234h-0.016C511.875,119.227,512,118.289,512,117.336z M418.5,384.008H93.516l-54.078-200.86
	c7.281,3.641,15.844,5.609,24.656,5.609c10.891,0,21.391-3,29.578-8.453l28.5-19c0.672-0.453,2.781-1.297,5.922-1.297
	c3.141,0,5.234,0.844,5.906,1.297l28.5,19c8.188,5.453,18.703,8.453,29.594,8.453s21.391-3,29.578-8.453l28.5-19
	c0.672-0.453,2.781-1.297,5.922-1.297s5.234,0.844,5.906,1.297l28.5,19c8.188,5.453,18.703,8.453,29.594,8.453
	s21.391-3,29.578-8.453l28.5-19c0.672-0.453,2.781-1.297,5.922-1.297s5.234,0.844,5.906,1.297l28.5,19
	c8.203,5.453,18.703,8.453,29.594,8.453c8.734,0,17.219-1.938,24.453-5.516L418.5,384.008z"/>
<path d="M213.344,256.008c-17.672,0-32,14.312-32,32c0,17.672,14.328,32,32,32s32-14.328,32-32
	C245.344,270.32,231.016,256.008,213.344,256.008z M213.344,298.664c-5.891,0-10.672-4.781-10.672-10.656
	c0-5.891,4.781-10.672,10.672-10.672c5.875,0,10.656,4.781,10.656,10.672C224,293.883,219.219,298.664,213.344,298.664z"/>
<path d="M298.672,256.008c-17.672,0-32,14.312-32,32c0,17.672,14.328,32,32,32s32-14.328,32-32
	C330.672,270.32,316.344,256.008,298.672,256.008z M298.672,298.664c-5.875,0-10.672-4.781-10.672-10.656
	c0-5.891,4.797-10.672,10.672-10.672c5.891,0,10.672,4.781,10.672,10.672C309.344,293.883,304.563,298.664,298.672,298.664z"/>
<g>
</g>
<g>
</g>
<g>
</g>
<g>
</g>
<g>
</g>
<g>
</g>
<g>
</g>
<g>
</g>
<g>
</g>
<g>
</g>
<g>
</g>
<g>
</g>
<g>
</g>
<g>
</g>
<g>
</g>
</svg>
