<?xml version="1.0" encoding="utf-8"?>
<!-- Generator: Adobe Illustrator 19.0.0, SVG Export Plug-In . SVG Version: 6.00 Build 0)  -->
<svg version="1.1" id="Layer_1" xmlns="http://www.w3.org/2000/svg" xmlns:xlink="http://www.w3.org/1999/xlink" x="0px" y="0px"
	 viewBox="-763 344.4 392.6 392.6" enable-background="new -763 344.4 392.6 392.6" xml:space="preserve">
<polygon fill="#FFFFFF" points="-667,569.1 -452,569.1 -397.7,436 -685.1,436 "/>
<path fill="#FFC10D" d="M-660.1,457.8l1.3,9.4h45.8c6,0,10.9,4.8,10.9,10.9c0,6-4.8,10.9-10.9,10.9h-42.8l2.9,21.8h16.1
	c6,0,10.9,4.8,10.9,10.9c0,6-4.8,10.9-10.9,10.9h-13.1l2,14.5h181.3l36.5-89.4L-660.1,457.8L-660.1,457.8z"/>
<g>
	<path fill="#56ACE0" d="M-638.3,685.4c-8.2,0-14.8,6.7-14.8,14.9c0,8.2,6.7,14.9,14.8,14.9c8.2,0,14.8-6.7,14.8-14.9
		C-623.5,692-630.3,685.4-638.3,685.4z"/>
	<path fill="#56ACE0" d="M-462.9,685.4c-8.2,0-14.9,6.7-14.9,14.9c0,8.2,6.7,14.9,14.9,14.9s14.9-6.7,14.9-14.9
		C-448,692-454.7,685.4-462.9,685.4z"/>
</g>
<g>
	<path fill="#050505" d="M-638.3,663.6c-20.2,0-36.7,16.5-36.7,36.7s16.5,36.7,36.7,36.7c20.2,0,36.7-16.5,36.7-36.7
		C-601.7,680-618.2,663.6-638.3,663.6z M-638.3,715.1c-8.2,0-14.8-6.7-14.8-14.9s6.7-14.9,14.8-14.9c8.2,0,14.8,6.7,14.8,14.9
		S-630.3,715.1-638.3,715.1z"/>
	<path fill="#050505" d="M-462.9,663.6c-20.2,0-36.7,16.5-36.7,36.7s16.5,36.7,36.7,36.7s36.7-16.5,36.7-36.7
		C-426.2,680-442.6,663.6-462.9,663.6z M-462.9,715.1c-8.2,0-14.9-6.7-14.9-14.9s6.7-14.9,14.9-14.9s14.9,6.7,14.9,14.9
		S-454.7,715.1-462.9,715.1z"/>
	<path d="M-506.3,491.6h-22.2v-22.2c0-6-4.8-10.9-10.9-10.9c-6,0-10.9,4.8-10.9,10.9v22.2h-22.2c-6,0-10.9,4.8-10.9,10.9
		c0,6,4.8,10.9,10.9,10.9h22.2v22.2c0,6,4.8,10.9,10.9,10.9c6,0,10.9-4.8,10.9-10.9v-22.2h22.2c6,0,10.9-4.8,10.9-10.9
		C-495.5,496.5-500.3,491.6-506.3,491.6z"/>
	<path d="M-409.5,569.1h-18.9l57-139.8c3.3-7.4-2.8-15-10.1-15H-688l-6.1-45c-0.5-4.2-3.5-7.6-7.4-8.9l-47.1-15.4
		c-5.8-1.9-11.9,1.2-13.8,6.9c-1.9,5.7,1.2,11.9,7,13.8l40.7,13.3l27.5,202.5c0.7,5.4,5.3,9.4,10.8,9.4h267.1
		c9.4,0,17.1,7.6,17.1,17.1s-7.6,17.1-17.1,17.1h-280.1c-6,0-10.9,4.8-10.9,10.9c0,6,4.8,10.9,10.9,10.9h280
		c21.5,0,38.9-17.5,38.9-38.9C-370.6,586.7-388,569.1-409.5,569.1z M-667,569.1l-18.1-133h287.5l-54.2,133H-667L-667,569.1z"/>
</g>
</svg>
