<?xml version="1.0" encoding="utf-8"?>
<!-- Generator: Adobe Illustrator 19.0.0, SVG Export Plug-In . SVG Version: 6.00 Build 0)  -->
<svg version="1.1" id="Layer_1" xmlns="http://www.w3.org/2000/svg" xmlns:xlink="http://www.w3.org/1999/xlink" x="0px" y="0px"
	 viewBox="-703 285 512 512" style="enable-background:new -703 285 512 512;" xml:space="preserve">
<style type="text/css">
	.st0{fill:#E4C914;}
</style>
<g>
	<g>
		<path class="st0" d="M-196.4,493.1l-242.7-177.7c-4.7-3.4-11-3.4-15.7,0l-242.7,177.7c-5.9,4.3-7.2,12.7-2.9,18.6
			c4.3,5.9,12.7,7.2,18.6,2.9L-447,342.6l234.8,171.9c2.4,1.7,5.1,2.6,7.8,2.6c4.1,0,8.1-1.9,10.7-5.4
			C-189.2,505.7-190.5,497.4-196.4,493.1z"/>
	</g>
</g>
<g>
	<g>
		<path class="st0" d="M-260.8,517.5c-7.3,0-13.3,6-13.3,13.3v211.7h-106.4V627c0-36.7-29.8-66.5-66.5-66.5s-66.5,29.8-66.5,66.5
			v115.6h-106.4V530.8c0-7.3-6-13.3-13.3-13.3s-13.3,6-13.3,13.3v225.1c0,7.3,6,13.3,13.3,13.3h133c7,0,12.7-5.4,13.3-12.3
			c0-0.3,0.1-0.7,0.1-1V627c0-22,17.9-39.9,39.9-39.9s39.9,17.9,39.9,39.9v128.9c0,0.4,0,0.7,0.1,1c0.5,6.9,6.3,12.3,13.3,12.3h133
			c7.3,0,13.3-6,13.3-13.3V530.8C-247.5,523.5-253.4,517.5-260.8,517.5z"/>
	</g>
</g>
</svg>
