<?xml version="1.0" encoding="utf-8"?>
<!-- Generator: Adobe Illustrator 19.0.0, SVG Export Plug-In . SVG Version: 6.00 Build 0)  -->
<svg version="1.1" id="Capa_1" xmlns="http://www.w3.org/2000/svg" xmlns:xlink="http://www.w3.org/1999/xlink" x="0px" y="0px"
	 viewBox="-727 309.9 463.1 463.1" style="enable-background:new -727 309.9 463.1 463.1;" xml:space="preserve">
<style type="text/css">
	.st0{fill:#E4C914;}
</style>
<g>
	<g>
		<path class="st0" d="M-275.8,352.3c-6.6,0-12,5.4-12,12v318.5c0,33.7-27.4,61-61,61H-642c-33.7,0-61-27.4-61-61V339.2h351.3v309
			c0,6.6,5.4,12,12,12s12-5.4,12-12v-321c0-6.6-5.4-12-12-12H-715c-6.6,0-12,5.4-12,12v355.5c0,46.9,38.1,85,85,85h293.1
			c46.9,0,85-38.1,85-85V364.3C-263.8,357.7-269.2,352.3-275.8,352.3z"/>
		<path class="st0" d="M-397.7,408.4c6.6,0,12-5.4,12-12s-5.4-12-12-12h-261.6c-6.6,0-12,5.4-12,12s5.4,12,12,12H-397.7z"/>
		<path class="st0" d="M-397.7,629h-261.6c-6.6,0-12,5.4-12,12s5.4,12,12,12h261.5c6.6,0,12-5.4,12-12S-391.1,629-397.7,629z"/>
		<path class="st0" d="M-397.7,690.5h-220.1c-6.6,0-12,5.4-12,12s5.4,12,12,12h220.1c6.6,0,12-5.4,12-12S-391.1,690.5-397.7,690.5z"
			/>
		<path class="st0" d="M-675.3,450.3v129.8c0,6.6,5.4,12,12,12H-533c6.6,0,12-5.4,12-12V450.3c0-6.6-5.4-12-12-12h-130.3
			C-669.9,438.3-675.3,443.7-675.3,450.3z M-651.3,462.3H-545v105.8h-106.3V462.3z"/>
		<path class="st0" d="M-391.3,450.3h-86.3c-6.6,0-12,5.4-12,12s5.4,12,12,12h86.3c6.6,0,12-5.4,12-12S-384.6,450.3-391.3,450.3z"/>
		<path class="st0" d="M-391.3,504.5h-86.3c-6.6,0-12,5.4-12,12c0,6.6,5.4,12,12,12h86.3c6.6,0,12-5.4,12-12
			C-379.3,509.9-384.6,504.5-391.3,504.5z"/>
		<path class="st0" d="M-379.3,574.1c0-6.6-5.4-12-12-12h-86.3c-6.6,0-12,5.4-12,12s5.4,12,12,12h86.3
			C-384.6,586.1-379.3,580.7-379.3,574.1z"/>
	</g>
</g>
</svg>
