<?xml version="1.0" encoding="utf-8"?>
<!-- Generator: Adobe Illustrator 19.0.0, SVG Export Plug-In . SVG Version: 6.00 Build 0)  -->
<svg version="1.1" id="Capa_1" xmlns="http://www.w3.org/2000/svg" xmlns:xlink="http://www.w3.org/1999/xlink" x="0px" y="0px"
	 viewBox="-653 235 612 612" style="enable-background:new -653 235 612 612;" xml:space="preserve">
<style type="text/css">
	.st0{fill:#FFFFFF;}
</style>
<g>
	<g>
		<g>
			<path class="st0" d="M-82.9,735.3c-65-29.4-67.5-155.4-67.6-158.6v-84.6c0-81.4-49.7-151.4-120.4-181.2
				C-271,269-305.1,235-347,235c-41.9,0-76,34-76.1,75.8c-70.7,29.8-120.4,99.8-120.4,181.2v84.6c0,3.2-2.5,129.3-67.6,158.6
				c-7.4,3.3-11.5,11.4-9.8,19.4c1.7,7.9,8.7,13.6,16.9,13.6h164.9c3.4,18.6,12.2,35.9,25.6,49.9C-395.6,836.7-372,847-347,847
				c25,0,48.6-10.2,66.5-28.9c13.4-14,22.2-31.3,25.6-49.9H-90c8.1,0,15.2-5.7,16.9-13.6C-71.4,746.7-75.5,738.6-82.9,735.3z
				 M-168.6,674.9c6.8,20.7,16.5,41.5,30.2,58.9h-417.4c13.7-17.3,23.4-38.1,30.2-58.9H-168.6z M-347,269.5c18.9,0,35,12.7,40,30.1
				c-12.9-2.7-26.3-4.1-40-4.1s-27.1,1.4-40,4.1C-382,282.2-365.9,269.5-347,269.5z M-509,576.7v-84.7c0-89.3,72.7-162,162-162
				s162,72.7,162,162v84.8c0,2.6,0.4,29.9,7.3,63.5h-338.7C-509.5,606.7-509.1,579.4-509,576.7z M-347,812.5
				c-26.3,0-49.3-19-56.7-44.2h113.4C-297.7,793.5-320.7,812.5-347,812.5z"/>
			<path class="st0" d="M-347,354.2c-74.3,0-134.7,60.4-134.7,134.7c0,9.5,7.7,17.3,17.3,17.3c9.5,0,17.3-7.7,17.3-17.3
				c0-55.2,44.9-100.1,100.1-100.1c9.5,0,17.3-7.7,17.3-17.3C-329.7,362-337.5,354.2-347,354.2z"/>
		</g>
	</g>
</g>
</svg>
