<?xml version="1.0" encoding="utf-8"?>
<!-- Generator: Adobe Illustrator 19.0.0, SVG Export Plug-In . SVG Version: 6.00 Build 0)  -->
<svg version="1.1" id="Capa_1" xmlns="http://www.w3.org/2000/svg" xmlns:xlink="http://www.w3.org/1999/xlink" x="0px" y="0px"
	 viewBox="-745 327 428 428" style="enable-background:new -745 327 428 428;" xml:space="preserve">
<style type="text/css">
	.st0{fill:#FFFFFF;}
</style>
<g>
	<g>
		<path class="st0" d="M-317,541c0-75.7-61.6-137.4-137.4-137.4H-490c-5.7,0-10.3,4.6-10.3,10.3c0,5.7,4.6,10.3,10.3,10.3h35.6
			c64.4,0,116.8,52.4,116.8,116.8S-390,657.9-454.4,657.9h-24.4l35.5-20.5c4.9-2.8,6.6-9.1,3.8-14c-2.8-4.9-9.1-6.6-14-3.8
			l-68.7,39.6c-3.2,1.8-5.1,5.2-5.1,8.9c0,3.7,2,7,5.1,8.9l68.7,39.7c1.6,0.9,3.4,1.4,5.1,1.4c3.5,0,7-1.8,8.9-5.1
			c2.8-4.9,1.2-11.2-3.8-14l-35.5-20.5h24.4C-378.7,678.4-317,616.8-317,541z"/>
		<path class="st0" d="M-539.9,405.1l-68.7-39.7c-4.9-2.8-11.2-1.2-14,3.8c-2.8,4.9-1.2,11.2,3.8,14l35.5,20.5h-24.4
			c-75.7,0-137.4,61.6-137.4,137.3c0,75.7,61.6,137.4,137.4,137.4h35.6c5.7,0,10.3-4.6,10.3-10.3c0-5.7-4.6-10.3-10.3-10.3h-35.6
			c-64.4,0-116.8-52.4-116.8-116.8c0-64.4,52.4-116.8,116.8-116.8h24.4l-35.5,20.5c-4.9,2.8-6.6,9.1-3.8,14c1.9,3.3,5.3,5.1,8.9,5.1
			c1.7,0,3.5-0.4,5.1-1.4l68.7-39.6c3.2-1.8,5.1-5.2,5.1-8.9C-534.7,410.3-536.7,406.9-539.9,405.1z"/>
	</g>
</g>
</svg>
